<mxfile host="Electron" agent="Mozilla/5.0 (Windows NT 10.0; Win64; x64) AppleWebKit/537.36 (KHTML, like Gecko) draw.io/27.0.9 Chrome/134.0.6998.205 Electron/35.4.0 Safari/537.36" version="27.0.9">
  <diagram name="Page-1" id="rz_-KbVZfCiXjfBqtWSM">
    <mxGraphModel dx="2775" dy="1458" grid="1" gridSize="10" guides="1" tooltips="1" connect="1" arrows="1" fold="1" page="1" pageScale="3" pageWidth="1100" pageHeight="850" math="0" shadow="0">
      <root>
        <mxCell id="0" />
        <mxCell id="1" parent="0" />
        <mxCell id="evuIn5ss0UBtVVDpxM4R-269" value="" style="group" vertex="1" connectable="0" parent="1">
          <mxGeometry x="1010" y="890" width="400" height="720" as="geometry" />
        </mxCell>
        <mxCell id="evuIn5ss0UBtVVDpxM4R-62" value="" style="swimlane;startSize=0;" vertex="1" parent="evuIn5ss0UBtVVDpxM4R-269">
          <mxGeometry x="100" width="240" height="660" as="geometry" />
        </mxCell>
        <mxCell id="evuIn5ss0UBtVVDpxM4R-63" value="&lt;font style=&quot;font-size: 18px;&quot; face=&quot;Courier New&quot;&gt;HIIT Gym Manager/&amp;nbsp;&lt;/font&gt;&lt;div&gt;&lt;font face=&quot;Courier New&quot;&gt;&lt;span style=&quot;font-size: 18px;&quot;&gt;Class Scheduling&lt;/span&gt;&lt;/font&gt;&lt;/div&gt;&lt;div&gt;&lt;font face=&quot;Courier New&quot;&gt;&lt;span style=&quot;font-size: 18px;&quot;&gt;and&amp;nbsp;&lt;/span&gt;&lt;/font&gt;&lt;span style=&quot;font-size: 18px; font-family: &amp;quot;Courier New&amp;quot;; background-color: transparent; color: light-dark(rgb(0, 0, 0), rgb(255, 255, 255));&quot;&gt;Booking&lt;/span&gt;&lt;/div&gt;" style="text;html=1;align=center;verticalAlign=middle;resizable=0;points=[];autosize=1;strokeColor=none;fillColor=none;" vertex="1" parent="evuIn5ss0UBtVVDpxM4R-62">
          <mxGeometry x="10" width="220" height="80" as="geometry" />
        </mxCell>
        <mxCell id="evuIn5ss0UBtVVDpxM4R-64" value="Create weekly schedule of class sessions" style="ellipse;whiteSpace=wrap;html=1;" vertex="1" parent="evuIn5ss0UBtVVDpxM4R-62">
          <mxGeometry x="55" y="100" width="155" height="40" as="geometry" />
        </mxCell>
        <mxCell id="evuIn5ss0UBtVVDpxM4R-65" value="View weekly schedule" style="ellipse;whiteSpace=wrap;html=1;" vertex="1" parent="evuIn5ss0UBtVVDpxM4R-62">
          <mxGeometry x="50" y="220" width="160" height="40" as="geometry" />
        </mxCell>
        <mxCell id="evuIn5ss0UBtVVDpxM4R-66" value="Assign Coaches to class sessions" style="ellipse;whiteSpace=wrap;html=1;" vertex="1" parent="evuIn5ss0UBtVVDpxM4R-62">
          <mxGeometry x="50" y="290" width="160" height="40" as="geometry" />
        </mxCell>
        <mxCell id="evuIn5ss0UBtVVDpxM4R-103" value="Modify weekly schedule or individual class session" style="ellipse;whiteSpace=wrap;html=1;" vertex="1" parent="evuIn5ss0UBtVVDpxM4R-62">
          <mxGeometry x="55" y="160" width="155" height="40" as="geometry" />
        </mxCell>
        <mxCell id="evuIn5ss0UBtVVDpxM4R-106" value="Book/ Cancel class based on credits" style="ellipse;whiteSpace=wrap;html=1;" vertex="1" parent="evuIn5ss0UBtVVDpxM4R-62">
          <mxGeometry x="40" y="540" width="160" height="40" as="geometry" />
        </mxCell>
        <mxCell id="evuIn5ss0UBtVVDpxM4R-112" value="View assigned Class Sessions&amp;nbsp;" style="ellipse;whiteSpace=wrap;html=1;" vertex="1" parent="evuIn5ss0UBtVVDpxM4R-62">
          <mxGeometry x="52.5" y="360" width="160" height="40" as="geometry" />
        </mxCell>
        <mxCell id="evuIn5ss0UBtVVDpxM4R-134" value="Create a class (by assigning a wokout)" style="ellipse;whiteSpace=wrap;html=1;" vertex="1" parent="evuIn5ss0UBtVVDpxM4R-62">
          <mxGeometry x="50" y="420" width="160" height="40" as="geometry" />
        </mxCell>
        <mxCell id="evuIn5ss0UBtVVDpxM4R-144" value="Browse available Classes" style="ellipse;whiteSpace=wrap;html=1;" vertex="1" parent="evuIn5ss0UBtVVDpxM4R-62">
          <mxGeometry x="40" y="480" width="160" height="40" as="geometry" />
        </mxCell>
        <mxCell id="evuIn5ss0UBtVVDpxM4R-147" value="View Booked Classes" style="ellipse;whiteSpace=wrap;html=1;" vertex="1" parent="evuIn5ss0UBtVVDpxM4R-62">
          <mxGeometry x="40" y="590" width="160" height="40" as="geometry" />
        </mxCell>
        <mxCell id="evuIn5ss0UBtVVDpxM4R-93" value="WebUser/Admin" style="shape=umlActor;verticalLabelPosition=bottom;verticalAlign=top;html=1;outlineConnect=0;" vertex="1" parent="evuIn5ss0UBtVVDpxM4R-269">
          <mxGeometry y="160" width="40" height="80" as="geometry" />
        </mxCell>
        <mxCell id="evuIn5ss0UBtVVDpxM4R-96" value="" style="endArrow=none;html=1;rounded=0;entryX=0;entryY=0.5;entryDx=0;entryDy=0;" edge="1" parent="evuIn5ss0UBtVVDpxM4R-269" source="evuIn5ss0UBtVVDpxM4R-93" target="evuIn5ss0UBtVVDpxM4R-64">
          <mxGeometry width="50" height="50" relative="1" as="geometry">
            <mxPoint x="-40" y="70" as="sourcePoint" />
            <mxPoint x="180" y="125" as="targetPoint" />
          </mxGeometry>
        </mxCell>
        <mxCell id="evuIn5ss0UBtVVDpxM4R-107" value="" style="endArrow=none;html=1;rounded=0;entryX=0;entryY=0.5;entryDx=0;entryDy=0;" edge="1" parent="evuIn5ss0UBtVVDpxM4R-269" source="evuIn5ss0UBtVVDpxM4R-93" target="evuIn5ss0UBtVVDpxM4R-103">
          <mxGeometry width="50" height="50" relative="1" as="geometry">
            <mxPoint x="25" y="188.3800000000001" as="sourcePoint" />
            <mxPoint x="150" y="171.3800000000001" as="targetPoint" />
          </mxGeometry>
        </mxCell>
        <mxCell id="evuIn5ss0UBtVVDpxM4R-108" value="" style="endArrow=none;html=1;rounded=0;entryX=0.025;entryY=0.296;entryDx=0;entryDy=0;entryPerimeter=0;" edge="1" parent="evuIn5ss0UBtVVDpxM4R-269" source="evuIn5ss0UBtVVDpxM4R-93" target="evuIn5ss0UBtVVDpxM4R-65">
          <mxGeometry width="50" height="50" relative="1" as="geometry">
            <mxPoint x="25" y="186" as="sourcePoint" />
            <mxPoint x="150" y="220" as="targetPoint" />
          </mxGeometry>
        </mxCell>
        <mxCell id="evuIn5ss0UBtVVDpxM4R-109" value="" style="endArrow=none;html=1;rounded=0;entryX=0;entryY=0.5;entryDx=0;entryDy=0;" edge="1" parent="evuIn5ss0UBtVVDpxM4R-269" source="evuIn5ss0UBtVVDpxM4R-93" target="evuIn5ss0UBtVVDpxM4R-66">
          <mxGeometry width="50" height="50" relative="1" as="geometry">
            <mxPoint x="10" y="170.24" as="sourcePoint" />
            <mxPoint x="134" y="249.24" as="targetPoint" />
          </mxGeometry>
        </mxCell>
        <mxCell id="evuIn5ss0UBtVVDpxM4R-115" value="&lt;font style=&quot;font-size: 10px;&quot;&gt;NOTE: Class Sessions are just time slots;&amp;nbsp;&lt;/font&gt;&lt;span style=&quot;font-size: 10px; background-color: transparent; color: light-dark(rgb(0, 0, 0), rgb(255, 255, 255));&quot;&gt;Classes&amp;nbsp;&lt;/span&gt;&lt;div&gt;&lt;span style=&quot;font-size: 10px; background-color: transparent; color: light-dark(rgb(0, 0, 0), rgb(255, 255, 255));&quot;&gt;are&amp;nbsp;&amp;nbsp;&lt;/span&gt;&lt;span style=&quot;background-color: transparent; color: light-dark(rgb(0, 0, 0), rgb(255, 255, 255)); font-size: 10px;&quot;&gt;the&amp;nbsp;&lt;/span&gt;&lt;span style=&quot;background-color: transparent; color: light-dark(rgb(0, 0, 0), rgb(255, 255, 255)); font-size: 10px;&quot;&gt;actual class&amp;nbsp;&lt;/span&gt;&lt;span style=&quot;background-color: transparent; color: light-dark(rgb(0, 0, 0), rgb(255, 255, 255)); font-size: 10px;&quot;&gt;with workout assigned&amp;nbsp;&lt;/span&gt;&lt;span style=&quot;background-color: transparent; color: light-dark(rgb(0, 0, 0), rgb(255, 255, 255)); font-size: 10px;&quot;&gt;that&amp;nbsp;&lt;/span&gt;&lt;/div&gt;&lt;div&gt;&lt;span style=&quot;background-color: transparent; color: light-dark(rgb(0, 0, 0), rgb(255, 255, 255)); font-size: 10px;&quot;&gt;members&amp;nbsp;&amp;nbsp;&lt;/span&gt;&lt;span style=&quot;background-color: transparent; color: light-dark(rgb(0, 0, 0), rgb(255, 255, 255)); font-size: 10px;&quot;&gt;can&amp;nbsp;&amp;nbsp;&lt;/span&gt;&lt;span style=&quot;background-color: transparent; color: light-dark(rgb(0, 0, 0), rgb(255, 255, 255)); font-size: 10px;&quot;&gt;then book&lt;/span&gt;&lt;/div&gt;" style="text;html=1;align=left;verticalAlign=middle;resizable=0;points=[];autosize=1;strokeColor=none;fillColor=none;" vertex="1" parent="evuIn5ss0UBtVVDpxM4R-269">
          <mxGeometry x="100" y="660" width="250" height="60" as="geometry" />
        </mxCell>
        <mxCell id="evuIn5ss0UBtVVDpxM4R-116" value="Coach" style="shape=umlActor;verticalLabelPosition=bottom;verticalAlign=top;html=1;outlineConnect=0;" vertex="1" parent="evuIn5ss0UBtVVDpxM4R-269">
          <mxGeometry x="360" y="360" width="40" height="80" as="geometry" />
        </mxCell>
        <mxCell id="evuIn5ss0UBtVVDpxM4R-117" value="" style="endArrow=none;html=1;rounded=0;" edge="1" parent="evuIn5ss0UBtVVDpxM4R-269" source="evuIn5ss0UBtVVDpxM4R-112" target="evuIn5ss0UBtVVDpxM4R-116">
          <mxGeometry width="50" height="50" relative="1" as="geometry">
            <mxPoint x="300" y="380.0799999999999" as="sourcePoint" />
            <mxPoint x="410" y="473.0799999999999" as="targetPoint" />
          </mxGeometry>
        </mxCell>
        <mxCell id="evuIn5ss0UBtVVDpxM4R-118" value="Member" style="shape=umlActor;verticalLabelPosition=bottom;verticalAlign=top;html=1;outlineConnect=0;" vertex="1" parent="evuIn5ss0UBtVVDpxM4R-269">
          <mxGeometry x="30" y="520" width="40" height="80" as="geometry" />
        </mxCell>
        <mxCell id="evuIn5ss0UBtVVDpxM4R-119" value="" style="endArrow=none;html=1;rounded=0;entryX=0.063;entryY=0.291;entryDx=0;entryDy=0;entryPerimeter=0;" edge="1" parent="evuIn5ss0UBtVVDpxM4R-269" source="evuIn5ss0UBtVVDpxM4R-118" target="evuIn5ss0UBtVVDpxM4R-106">
          <mxGeometry width="50" height="50" relative="1" as="geometry">
            <mxPoint x="10" y="440.0799999999999" as="sourcePoint" />
            <mxPoint x="120" y="533.0799999999999" as="targetPoint" />
          </mxGeometry>
        </mxCell>
        <mxCell id="evuIn5ss0UBtVVDpxM4R-145" value="" style="endArrow=none;html=1;rounded=0;exitX=0.889;exitY=0.396;exitDx=0;exitDy=0;exitPerimeter=0;" edge="1" parent="evuIn5ss0UBtVVDpxM4R-269" source="evuIn5ss0UBtVVDpxM4R-134" target="evuIn5ss0UBtVVDpxM4R-116">
          <mxGeometry width="50" height="50" relative="1" as="geometry">
            <mxPoint x="303" y="437.18000000000006" as="sourcePoint" />
            <mxPoint x="430" y="360" as="targetPoint" />
          </mxGeometry>
        </mxCell>
        <mxCell id="evuIn5ss0UBtVVDpxM4R-146" value="" style="endArrow=none;html=1;rounded=0;entryX=0;entryY=0.5;entryDx=0;entryDy=0;" edge="1" parent="evuIn5ss0UBtVVDpxM4R-269" source="evuIn5ss0UBtVVDpxM4R-118" target="evuIn5ss0UBtVVDpxM4R-144">
          <mxGeometry width="50" height="50" relative="1" as="geometry">
            <mxPoint x="40" y="449.6199999999999" as="sourcePoint" />
            <mxPoint x="150" y="534.6199999999999" as="targetPoint" />
          </mxGeometry>
        </mxCell>
        <mxCell id="evuIn5ss0UBtVVDpxM4R-148" value="" style="endArrow=none;html=1;rounded=0;entryX=0;entryY=0.5;entryDx=0;entryDy=0;" edge="1" parent="evuIn5ss0UBtVVDpxM4R-269" source="evuIn5ss0UBtVVDpxM4R-118" target="evuIn5ss0UBtVVDpxM4R-147">
          <mxGeometry width="50" height="50" relative="1" as="geometry">
            <mxPoint y="494" as="sourcePoint" />
            <mxPoint x="110" y="570" as="targetPoint" />
          </mxGeometry>
        </mxCell>
        <mxCell id="evuIn5ss0UBtVVDpxM4R-270" value="" style="group" vertex="1" connectable="0" parent="1">
          <mxGeometry x="530" y="210" width="440" height="380" as="geometry" />
        </mxCell>
        <mxCell id="evuIn5ss0UBtVVDpxM4R-192" value="" style="swimlane;startSize=0;" vertex="1" parent="evuIn5ss0UBtVVDpxM4R-270">
          <mxGeometry x="70" width="310" height="380" as="geometry" />
        </mxCell>
        <mxCell id="evuIn5ss0UBtVVDpxM4R-193" value="&lt;font style=&quot;font-size: 18px;&quot; face=&quot;Courier New&quot;&gt;HIIT Gym Manager/&amp;nbsp;&lt;/font&gt;&lt;div&gt;&lt;font face=&quot;Courier New&quot;&gt;&lt;span style=&quot;font-size: 18px;&quot;&gt;Membership &amp;amp; Subscription&lt;/span&gt;&lt;/font&gt;&lt;/div&gt;" style="text;html=1;align=center;verticalAlign=middle;resizable=0;points=[];autosize=1;strokeColor=none;fillColor=none;" vertex="1" parent="evuIn5ss0UBtVVDpxM4R-192">
          <mxGeometry x="12.5" y="10" width="290" height="60" as="geometry" />
        </mxCell>
        <mxCell id="evuIn5ss0UBtVVDpxM4R-195" value="Purchase/ Subscribe" style="ellipse;whiteSpace=wrap;html=1;" vertex="1" parent="evuIn5ss0UBtVVDpxM4R-192">
          <mxGeometry x="105" y="80" width="100" height="40" as="geometry" />
        </mxCell>
        <mxCell id="evuIn5ss0UBtVVDpxM4R-196" value="View package status" style="ellipse;whiteSpace=wrap;html=1;" vertex="1" parent="evuIn5ss0UBtVVDpxM4R-192">
          <mxGeometry x="100" y="180" width="100" height="40" as="geometry" />
        </mxCell>
        <mxCell id="evuIn5ss0UBtVVDpxM4R-197" value="View credit balance" style="ellipse;whiteSpace=wrap;html=1;" vertex="1" parent="evuIn5ss0UBtVVDpxM4R-192">
          <mxGeometry x="100" y="230" width="100" height="40" as="geometry" />
        </mxCell>
        <mxCell id="evuIn5ss0UBtVVDpxM4R-199" value="Renew/ Cancel subscription" style="ellipse;whiteSpace=wrap;html=1;" vertex="1" parent="evuIn5ss0UBtVVDpxM4R-192">
          <mxGeometry x="100" y="280" width="100" height="40" as="geometry" />
        </mxCell>
        <mxCell id="evuIn5ss0UBtVVDpxM4R-194" value="View available packages" style="ellipse;whiteSpace=wrap;html=1;" vertex="1" parent="evuIn5ss0UBtVVDpxM4R-192">
          <mxGeometry x="105" y="130" width="100" height="40" as="geometry" />
        </mxCell>
        <mxCell id="evuIn5ss0UBtVVDpxM4R-253" value="Change subscription" style="ellipse;whiteSpace=wrap;html=1;" vertex="1" parent="evuIn5ss0UBtVVDpxM4R-192">
          <mxGeometry x="107.5" y="330" width="100" height="40" as="geometry" />
        </mxCell>
        <mxCell id="evuIn5ss0UBtVVDpxM4R-242" value="Member" style="shape=umlActor;verticalLabelPosition=bottom;verticalAlign=top;html=1;outlineConnect=0;" vertex="1" parent="evuIn5ss0UBtVVDpxM4R-270">
          <mxGeometry y="170" width="40" height="80" as="geometry" />
        </mxCell>
        <mxCell id="evuIn5ss0UBtVVDpxM4R-243" value="Visitor" style="shape=umlActor;verticalLabelPosition=bottom;verticalAlign=top;html=1;outlineConnect=0;" vertex="1" parent="evuIn5ss0UBtVVDpxM4R-270">
          <mxGeometry x="400" y="110" width="40" height="80" as="geometry" />
        </mxCell>
        <mxCell id="evuIn5ss0UBtVVDpxM4R-245" value="" style="endArrow=none;html=1;rounded=0;exitX=0;exitY=0.5;exitDx=0;exitDy=0;" edge="1" parent="evuIn5ss0UBtVVDpxM4R-270" source="evuIn5ss0UBtVVDpxM4R-194" target="evuIn5ss0UBtVVDpxM4R-242">
          <mxGeometry width="50" height="50" relative="1" as="geometry">
            <mxPoint x="-32" y="-159" as="sourcePoint" />
            <mxPoint x="68" y="-167" as="targetPoint" />
          </mxGeometry>
        </mxCell>
        <mxCell id="evuIn5ss0UBtVVDpxM4R-246" value="" style="endArrow=none;html=1;rounded=0;entryX=0;entryY=0.5;entryDx=0;entryDy=0;" edge="1" parent="evuIn5ss0UBtVVDpxM4R-270" source="evuIn5ss0UBtVVDpxM4R-242" target="evuIn5ss0UBtVVDpxM4R-197">
          <mxGeometry width="50" height="50" relative="1" as="geometry">
            <mxPoint x="-32" y="-167" as="sourcePoint" />
            <mxPoint x="65" y="-217" as="targetPoint" />
          </mxGeometry>
        </mxCell>
        <mxCell id="evuIn5ss0UBtVVDpxM4R-247" value="" style="endArrow=none;html=1;rounded=0;exitX=0;exitY=0.5;exitDx=0;exitDy=0;" edge="1" parent="evuIn5ss0UBtVVDpxM4R-270" source="evuIn5ss0UBtVVDpxM4R-199" target="evuIn5ss0UBtVVDpxM4R-242">
          <mxGeometry width="50" height="50" relative="1" as="geometry">
            <mxPoint x="68" y="-260" as="sourcePoint" />
            <mxPoint x="-32" y="-174" as="targetPoint" />
          </mxGeometry>
        </mxCell>
        <mxCell id="evuIn5ss0UBtVVDpxM4R-248" value="" style="endArrow=none;html=1;rounded=0;entryX=0;entryY=0.5;entryDx=0;entryDy=0;" edge="1" parent="evuIn5ss0UBtVVDpxM4R-270" source="evuIn5ss0UBtVVDpxM4R-242" target="evuIn5ss0UBtVVDpxM4R-194">
          <mxGeometry width="50" height="50" relative="1" as="geometry">
            <mxPoint x="70" y="-53" as="sourcePoint" />
            <mxPoint x="-32" y="-140" as="targetPoint" />
          </mxGeometry>
        </mxCell>
        <mxCell id="evuIn5ss0UBtVVDpxM4R-249" value="" style="endArrow=none;html=1;rounded=0;exitX=1;exitY=0.5;exitDx=0;exitDy=0;" edge="1" parent="evuIn5ss0UBtVVDpxM4R-270" source="evuIn5ss0UBtVVDpxM4R-195" target="evuIn5ss0UBtVVDpxM4R-243">
          <mxGeometry width="50" height="50" relative="1" as="geometry">
            <mxPoint x="420" y="29.920000000000073" as="sourcePoint" />
            <mxPoint x="660" y="66.92000000000007" as="targetPoint" />
          </mxGeometry>
        </mxCell>
        <mxCell id="evuIn5ss0UBtVVDpxM4R-250" value="" style="endArrow=none;html=1;rounded=0;exitX=0.982;exitY=0.525;exitDx=0;exitDy=0;exitPerimeter=0;" edge="1" parent="evuIn5ss0UBtVVDpxM4R-270" source="evuIn5ss0UBtVVDpxM4R-194" target="evuIn5ss0UBtVVDpxM4R-243">
          <mxGeometry width="50" height="50" relative="1" as="geometry">
            <mxPoint x="280" y="150" as="sourcePoint" />
            <mxPoint x="485" y="108" as="targetPoint" />
          </mxGeometry>
        </mxCell>
        <mxCell id="evuIn5ss0UBtVVDpxM4R-251" value="" style="endArrow=none;html=1;rounded=0;entryX=-0.01;entryY=0.367;entryDx=0;entryDy=0;entryPerimeter=0;" edge="1" parent="evuIn5ss0UBtVVDpxM4R-270" source="evuIn5ss0UBtVVDpxM4R-242" target="evuIn5ss0UBtVVDpxM4R-196">
          <mxGeometry width="50" height="50" relative="1" as="geometry">
            <mxPoint x="170" y="200" as="sourcePoint" />
            <mxPoint x="-70" y="71" as="targetPoint" />
          </mxGeometry>
        </mxCell>
        <mxCell id="evuIn5ss0UBtVVDpxM4R-252" value="" style="endArrow=none;html=1;rounded=0;exitX=1;exitY=0.5;exitDx=0;exitDy=0;" edge="1" parent="evuIn5ss0UBtVVDpxM4R-270" source="evuIn5ss0UBtVVDpxM4R-196" target="evuIn5ss0UBtVVDpxM4R-243">
          <mxGeometry width="50" height="50" relative="1" as="geometry">
            <mxPoint x="266" y="179.83999999999992" as="sourcePoint" />
            <mxPoint x="450" y="203.83999999999992" as="targetPoint" />
          </mxGeometry>
        </mxCell>
        <mxCell id="evuIn5ss0UBtVVDpxM4R-254" value="" style="endArrow=none;html=1;rounded=0;exitX=0.09;exitY=0.579;exitDx=0;exitDy=0;exitPerimeter=0;" edge="1" parent="evuIn5ss0UBtVVDpxM4R-270" source="evuIn5ss0UBtVVDpxM4R-253" target="evuIn5ss0UBtVVDpxM4R-242">
          <mxGeometry width="50" height="50" relative="1" as="geometry">
            <mxPoint x="160" y="328.75" as="sourcePoint" />
            <mxPoint x="20" y="249.75" as="targetPoint" />
          </mxGeometry>
        </mxCell>
        <mxCell id="evuIn5ss0UBtVVDpxM4R-271" value="" style="group" vertex="1" connectable="0" parent="1">
          <mxGeometry x="620" y="1230" width="320" height="550" as="geometry" />
        </mxCell>
        <mxCell id="evuIn5ss0UBtVVDpxM4R-212" value="" style="swimlane;startSize=0;" vertex="1" parent="evuIn5ss0UBtVVDpxM4R-271">
          <mxGeometry width="230" height="550" as="geometry" />
        </mxCell>
        <mxCell id="evuIn5ss0UBtVVDpxM4R-213" value="&lt;font style=&quot;font-size: 18px;&quot; face=&quot;Courier New&quot;&gt;HIIT Gym Manager/&amp;nbsp;&lt;/font&gt;&lt;div&gt;&lt;font face=&quot;Courier New&quot;&gt;&lt;span style=&quot;font-size: 18px;&quot;&gt;Admin &amp;amp; Analytics&lt;/span&gt;&lt;/font&gt;&lt;/div&gt;" style="text;html=1;align=center;verticalAlign=middle;resizable=0;points=[];autosize=1;strokeColor=none;fillColor=none;" vertex="1" parent="evuIn5ss0UBtVVDpxM4R-212">
          <mxGeometry x="5" width="220" height="60" as="geometry" />
        </mxCell>
        <mxCell id="evuIn5ss0UBtVVDpxM4R-167" value="View Workout Performance Trends" style="ellipse;whiteSpace=wrap;html=1;" vertex="1" parent="evuIn5ss0UBtVVDpxM4R-212">
          <mxGeometry x="37.5" y="190" width="155" height="40" as="geometry" />
        </mxCell>
        <mxCell id="evuIn5ss0UBtVVDpxM4R-219" value="View attendanc rpeorts" style="ellipse;whiteSpace=wrap;html=1;" vertex="1" parent="evuIn5ss0UBtVVDpxM4R-212">
          <mxGeometry x="37.5" y="70" width="155" height="40" as="geometry" />
        </mxCell>
        <mxCell id="evuIn5ss0UBtVVDpxM4R-220" value="View Revenue &amp;amp; Churn Reports" style="ellipse;whiteSpace=wrap;html=1;" vertex="1" parent="evuIn5ss0UBtVVDpxM4R-212">
          <mxGeometry x="37.5" y="130" width="155" height="40" as="geometry" />
        </mxCell>
        <mxCell id="evuIn5ss0UBtVVDpxM4R-221" value="View Workout Performance Trends" style="ellipse;whiteSpace=wrap;html=1;" vertex="1" parent="evuIn5ss0UBtVVDpxM4R-212">
          <mxGeometry x="37.5" y="250" width="155" height="40" as="geometry" />
        </mxCell>
        <mxCell id="evuIn5ss0UBtVVDpxM4R-255" value="View Admin list" style="ellipse;whiteSpace=wrap;html=1;" vertex="1" parent="evuIn5ss0UBtVVDpxM4R-212">
          <mxGeometry x="37.5" y="490" width="155" height="40" as="geometry" />
        </mxCell>
        <mxCell id="evuIn5ss0UBtVVDpxM4R-164" value="View Coaches list" style="ellipse;whiteSpace=wrap;html=1;" vertex="1" parent="evuIn5ss0UBtVVDpxM4R-212">
          <mxGeometry x="37.5" y="430" width="155" height="40" as="geometry" />
        </mxCell>
        <mxCell id="evuIn5ss0UBtVVDpxM4R-163" value="View active Members" style="ellipse;whiteSpace=wrap;html=1;" vertex="1" parent="evuIn5ss0UBtVVDpxM4R-212">
          <mxGeometry x="37.5" y="370" width="155" height="40" as="geometry" />
        </mxCell>
        <mxCell id="evuIn5ss0UBtVVDpxM4R-153" value="View pending Members" style="ellipse;whiteSpace=wrap;html=1;" vertex="1" parent="evuIn5ss0UBtVVDpxM4R-212">
          <mxGeometry x="37.5" y="310" width="155" height="40" as="geometry" />
        </mxCell>
        <mxCell id="evuIn5ss0UBtVVDpxM4R-257" value="WebUser/Admin" style="shape=umlActor;verticalLabelPosition=bottom;verticalAlign=top;html=1;outlineConnect=0;" vertex="1" parent="evuIn5ss0UBtVVDpxM4R-271">
          <mxGeometry x="280" y="260" width="40" height="80" as="geometry" />
        </mxCell>
        <mxCell id="evuIn5ss0UBtVVDpxM4R-259" value="" style="endArrow=none;html=1;rounded=0;entryX=0.968;entryY=0.5;entryDx=0;entryDy=0;entryPerimeter=0;" edge="1" parent="evuIn5ss0UBtVVDpxM4R-271" source="evuIn5ss0UBtVVDpxM4R-257" target="evuIn5ss0UBtVVDpxM4R-167">
          <mxGeometry width="50" height="50" relative="1" as="geometry">
            <mxPoint x="500" y="250.0000000000001" as="sourcePoint" />
            <mxPoint x="591" y="209.0000000000001" as="targetPoint" />
          </mxGeometry>
        </mxCell>
        <mxCell id="evuIn5ss0UBtVVDpxM4R-260" value="" style="endArrow=none;html=1;rounded=0;exitX=0.932;exitY=0.439;exitDx=0;exitDy=0;exitPerimeter=0;" edge="1" parent="evuIn5ss0UBtVVDpxM4R-271" source="evuIn5ss0UBtVVDpxM4R-220" target="evuIn5ss0UBtVVDpxM4R-257">
          <mxGeometry width="50" height="50" relative="1" as="geometry">
            <mxPoint x="591" y="201.0000000000001" as="sourcePoint" />
            <mxPoint x="502" y="205.0000000000001" as="targetPoint" />
          </mxGeometry>
        </mxCell>
        <mxCell id="evuIn5ss0UBtVVDpxM4R-261" value="" style="endArrow=none;html=1;rounded=0;entryX=0.975;entryY=0.383;entryDx=0;entryDy=0;entryPerimeter=0;" edge="1" parent="evuIn5ss0UBtVVDpxM4R-271" source="evuIn5ss0UBtVVDpxM4R-257" target="evuIn5ss0UBtVVDpxM4R-219">
          <mxGeometry width="50" height="50" relative="1" as="geometry">
            <mxPoint x="502" y="109.00000000000011" as="sourcePoint" />
            <mxPoint x="591" y="183.0000000000001" as="targetPoint" />
          </mxGeometry>
        </mxCell>
        <mxCell id="evuIn5ss0UBtVVDpxM4R-262" value="" style="endArrow=none;html=1;rounded=0;exitX=0.965;exitY=0.402;exitDx=0;exitDy=0;exitPerimeter=0;" edge="1" parent="evuIn5ss0UBtVVDpxM4R-271" source="evuIn5ss0UBtVVDpxM4R-164" target="evuIn5ss0UBtVVDpxM4R-257">
          <mxGeometry width="50" height="50" relative="1" as="geometry">
            <mxPoint x="470" y="431" as="sourcePoint" />
            <mxPoint x="561" y="390" as="targetPoint" />
          </mxGeometry>
        </mxCell>
        <mxCell id="evuIn5ss0UBtVVDpxM4R-263" value="" style="endArrow=none;html=1;rounded=0;entryX=1;entryY=0.5;entryDx=0;entryDy=0;" edge="1" parent="evuIn5ss0UBtVVDpxM4R-271" source="evuIn5ss0UBtVVDpxM4R-257" target="evuIn5ss0UBtVVDpxM4R-163">
          <mxGeometry width="50" height="50" relative="1" as="geometry">
            <mxPoint x="561" y="382" as="sourcePoint" />
            <mxPoint x="472" y="386" as="targetPoint" />
          </mxGeometry>
        </mxCell>
        <mxCell id="evuIn5ss0UBtVVDpxM4R-264" value="" style="endArrow=none;html=1;rounded=0;exitX=1;exitY=0.5;exitDx=0;exitDy=0;" edge="1" parent="evuIn5ss0UBtVVDpxM4R-271" source="evuIn5ss0UBtVVDpxM4R-221" target="evuIn5ss0UBtVVDpxM4R-257">
          <mxGeometry width="50" height="50" relative="1" as="geometry">
            <mxPoint x="472" y="290" as="sourcePoint" />
            <mxPoint x="561" y="364" as="targetPoint" />
          </mxGeometry>
        </mxCell>
        <mxCell id="evuIn5ss0UBtVVDpxM4R-266" value="" style="endArrow=none;html=1;rounded=0;exitX=0.97;exitY=0.235;exitDx=0;exitDy=0;exitPerimeter=0;" edge="1" parent="evuIn5ss0UBtVVDpxM4R-271" source="evuIn5ss0UBtVVDpxM4R-255" target="evuIn5ss0UBtVVDpxM4R-257">
          <mxGeometry width="50" height="50" relative="1" as="geometry">
            <mxPoint x="550" y="451" as="sourcePoint" />
            <mxPoint x="641" y="410" as="targetPoint" />
          </mxGeometry>
        </mxCell>
        <mxCell id="evuIn5ss0UBtVVDpxM4R-267" value="" style="endArrow=none;html=1;rounded=0;exitX=0.951;exitY=0.643;exitDx=0;exitDy=0;exitPerimeter=0;" edge="1" parent="evuIn5ss0UBtVVDpxM4R-271" source="evuIn5ss0UBtVVDpxM4R-153" target="evuIn5ss0UBtVVDpxM4R-257">
          <mxGeometry width="50" height="50" relative="1" as="geometry">
            <mxPoint x="500" y="331" as="sourcePoint" />
            <mxPoint x="591" y="290" as="targetPoint" />
          </mxGeometry>
        </mxCell>
        <mxCell id="evuIn5ss0UBtVVDpxM4R-272" value="" style="group" vertex="1" connectable="0" parent="1">
          <mxGeometry x="1030" y="520" width="410" height="330" as="geometry" />
        </mxCell>
        <mxCell id="evuIn5ss0UBtVVDpxM4R-180" value="" style="swimlane;startSize=0;" vertex="1" parent="evuIn5ss0UBtVVDpxM4R-272">
          <mxGeometry x="70" width="280" height="330" as="geometry" />
        </mxCell>
        <mxCell id="evuIn5ss0UBtVVDpxM4R-181" value="&lt;font style=&quot;font-size: 18px;&quot; face=&quot;Courier New&quot;&gt;HIIT Gym Manager/&amp;nbsp;&lt;/font&gt;&lt;div&gt;&lt;font face=&quot;Courier New&quot;&gt;&lt;span style=&quot;font-size: 18px;&quot;&gt;Class and Leaderboard&lt;/span&gt;&lt;/font&gt;&lt;/div&gt;" style="text;html=1;align=center;verticalAlign=middle;resizable=0;points=[];autosize=1;strokeColor=none;fillColor=none;" vertex="1" parent="evuIn5ss0UBtVVDpxM4R-180">
          <mxGeometry x="15" y="10" width="250" height="60" as="geometry" />
        </mxCell>
        <mxCell id="evuIn5ss0UBtVVDpxM4R-184" value="Submit workout score" style="ellipse;whiteSpace=wrap;html=1;" vertex="1" parent="evuIn5ss0UBtVVDpxM4R-180">
          <mxGeometry x="65" y="130" width="150" height="40" as="geometry" />
        </mxCell>
        <mxCell id="evuIn5ss0UBtVVDpxM4R-203" value="View Live Leaderboard" style="ellipse;whiteSpace=wrap;html=1;" vertex="1" parent="evuIn5ss0UBtVVDpxM4R-180">
          <mxGeometry x="60" y="230" width="150" height="40" as="geometry" />
        </mxCell>
        <mxCell id="evuIn5ss0UBtVVDpxM4R-204" value="Opt-Out from Public Leaderboard" style="ellipse;whiteSpace=wrap;html=1;" vertex="1" parent="evuIn5ss0UBtVVDpxM4R-180">
          <mxGeometry x="70" y="280" width="140" height="40" as="geometry" />
        </mxCell>
        <mxCell id="evuIn5ss0UBtVVDpxM4R-168" value="Check in to class" style="ellipse;whiteSpace=wrap;html=1;" vertex="1" parent="evuIn5ss0UBtVVDpxM4R-180">
          <mxGeometry x="65" y="80" width="150" height="40" as="geometry" />
        </mxCell>
        <mxCell id="evuIn5ss0UBtVVDpxM4R-230" value="View Leaderboards" style="ellipse;whiteSpace=wrap;html=1;" vertex="1" parent="evuIn5ss0UBtVVDpxM4R-180">
          <mxGeometry x="65" y="180" width="150" height="40" as="geometry" />
        </mxCell>
        <mxCell id="evuIn5ss0UBtVVDpxM4R-227" value="Coach" style="shape=umlActor;verticalLabelPosition=bottom;verticalAlign=top;html=1;outlineConnect=0;" vertex="1" parent="evuIn5ss0UBtVVDpxM4R-272">
          <mxGeometry x="370" y="150" width="40" height="80" as="geometry" />
        </mxCell>
        <mxCell id="evuIn5ss0UBtVVDpxM4R-228" value="Member" style="shape=umlActor;verticalLabelPosition=bottom;verticalAlign=top;html=1;outlineConnect=0;" vertex="1" parent="evuIn5ss0UBtVVDpxM4R-272">
          <mxGeometry y="160" width="40" height="80" as="geometry" />
        </mxCell>
        <mxCell id="evuIn5ss0UBtVVDpxM4R-231" value="" style="endArrow=none;html=1;rounded=0;exitX=0;exitY=0.25;exitDx=0;exitDy=0;exitPerimeter=0;" edge="1" parent="evuIn5ss0UBtVVDpxM4R-272" source="evuIn5ss0UBtVVDpxM4R-203" target="evuIn5ss0UBtVVDpxM4R-228">
          <mxGeometry width="50" height="50" relative="1" as="geometry">
            <mxPoint x="100" y="-169.71000000000004" as="sourcePoint" />
            <mxPoint x="-30" y="90" as="targetPoint" />
          </mxGeometry>
        </mxCell>
        <mxCell id="evuIn5ss0UBtVVDpxM4R-232" value="" style="endArrow=none;html=1;rounded=0;entryX=0.033;entryY=0.25;entryDx=0;entryDy=0;entryPerimeter=0;" edge="1" parent="evuIn5ss0UBtVVDpxM4R-272" source="evuIn5ss0UBtVVDpxM4R-228" target="evuIn5ss0UBtVVDpxM4R-230">
          <mxGeometry width="50" height="50" relative="1" as="geometry">
            <mxPoint x="30" y="-140" as="sourcePoint" />
            <mxPoint x="119" y="-101" as="targetPoint" />
          </mxGeometry>
        </mxCell>
        <mxCell id="evuIn5ss0UBtVVDpxM4R-233" value="" style="endArrow=none;html=1;rounded=0;entryX=0.015;entryY=0.25;entryDx=0;entryDy=0;entryPerimeter=0;" edge="1" parent="evuIn5ss0UBtVVDpxM4R-272" source="evuIn5ss0UBtVVDpxM4R-228" target="evuIn5ss0UBtVVDpxM4R-184">
          <mxGeometry width="50" height="50" relative="1" as="geometry">
            <mxPoint x="-40" y="-120" as="sourcePoint" />
            <mxPoint x="49" y="-81" as="targetPoint" />
          </mxGeometry>
        </mxCell>
        <mxCell id="evuIn5ss0UBtVVDpxM4R-234" value="" style="endArrow=none;html=1;rounded=0;exitX=0.034;exitY=0.414;exitDx=0;exitDy=0;exitPerimeter=0;" edge="1" parent="evuIn5ss0UBtVVDpxM4R-272" source="evuIn5ss0UBtVVDpxM4R-168" target="evuIn5ss0UBtVVDpxM4R-228">
          <mxGeometry width="50" height="50" relative="1" as="geometry">
            <mxPoint x="-60" y="-80" as="sourcePoint" />
            <mxPoint x="29" y="-41" as="targetPoint" />
          </mxGeometry>
        </mxCell>
        <mxCell id="evuIn5ss0UBtVVDpxM4R-235" value="" style="endArrow=none;html=1;rounded=0;exitX=0.993;exitY=0.25;exitDx=0;exitDy=0;exitPerimeter=0;" edge="1" parent="evuIn5ss0UBtVVDpxM4R-272" source="evuIn5ss0UBtVVDpxM4R-203" target="evuIn5ss0UBtVVDpxM4R-227">
          <mxGeometry width="50" height="50" relative="1" as="geometry">
            <mxPoint x="600" y="217.21000000000004" as="sourcePoint" />
            <mxPoint x="440" y="66.21000000000004" as="targetPoint" />
          </mxGeometry>
        </mxCell>
        <mxCell id="evuIn5ss0UBtVVDpxM4R-236" value="" style="endArrow=none;html=1;rounded=0;entryX=0.971;entryY=0.386;entryDx=0;entryDy=0;entryPerimeter=0;" edge="1" parent="evuIn5ss0UBtVVDpxM4R-272" source="evuIn5ss0UBtVVDpxM4R-227" target="evuIn5ss0UBtVVDpxM4R-230">
          <mxGeometry width="50" height="50" relative="1" as="geometry">
            <mxPoint x="440" y="60.210000000000036" as="sourcePoint" />
            <mxPoint x="610" y="167.21000000000004" as="targetPoint" />
          </mxGeometry>
        </mxCell>
        <mxCell id="evuIn5ss0UBtVVDpxM4R-237" value="" style="endArrow=none;html=1;rounded=0;" edge="1" parent="evuIn5ss0UBtVVDpxM4R-272" source="evuIn5ss0UBtVVDpxM4R-227" target="evuIn5ss0UBtVVDpxM4R-184">
          <mxGeometry width="50" height="50" relative="1" as="geometry">
            <mxPoint x="440" y="54.210000000000036" as="sourcePoint" />
            <mxPoint x="607" y="117.21000000000004" as="targetPoint" />
          </mxGeometry>
        </mxCell>
        <mxCell id="evuIn5ss0UBtVVDpxM4R-238" value="" style="endArrow=none;html=1;rounded=0;exitX=0.975;exitY=0.471;exitDx=0;exitDy=0;exitPerimeter=0;" edge="1" parent="evuIn5ss0UBtVVDpxM4R-272" source="evuIn5ss0UBtVVDpxM4R-168" target="evuIn5ss0UBtVVDpxM4R-227">
          <mxGeometry width="50" height="50" relative="1" as="geometry">
            <mxPoint x="610" y="74.21000000000004" as="sourcePoint" />
            <mxPoint x="440" y="50.210000000000036" as="targetPoint" />
          </mxGeometry>
        </mxCell>
        <mxCell id="evuIn5ss0UBtVVDpxM4R-239" value="" style="endArrow=none;html=1;rounded=0;exitX=0.017;exitY=0.6;exitDx=0;exitDy=0;exitPerimeter=0;" edge="1" parent="evuIn5ss0UBtVVDpxM4R-272" source="evuIn5ss0UBtVVDpxM4R-204" target="evuIn5ss0UBtVVDpxM4R-228">
          <mxGeometry width="50" height="50" relative="1" as="geometry">
            <mxPoint x="-69.94999999999982" y="299.4100000000001" as="sourcePoint" />
            <mxPoint x="61.05000000000018" y="230.41000000000008" as="targetPoint" />
          </mxGeometry>
        </mxCell>
        <mxCell id="evuIn5ss0UBtVVDpxM4R-273" value="" style="group" vertex="1" connectable="0" parent="1">
          <mxGeometry x="1050" y="220" width="340" height="280" as="geometry" />
        </mxCell>
        <mxCell id="evuIn5ss0UBtVVDpxM4R-120" value="" style="swimlane;startSize=0;" vertex="1" parent="evuIn5ss0UBtVVDpxM4R-273">
          <mxGeometry x="60" width="280" height="280" as="geometry" />
        </mxCell>
        <mxCell id="evuIn5ss0UBtVVDpxM4R-121" value="&lt;font style=&quot;font-size: 18px;&quot; face=&quot;Courier New&quot;&gt;HIIT Gym Manager/&amp;nbsp;&lt;/font&gt;&lt;div&gt;&lt;span style=&quot;font-size: 18px; font-family: &amp;quot;Courier New&amp;quot;; background-color: transparent; color: light-dark(rgb(0, 0, 0), rgb(255, 255, 255));&quot;&gt;Workout Creation&lt;/span&gt;&lt;/div&gt;" style="text;html=1;align=center;verticalAlign=middle;resizable=0;points=[];autosize=1;strokeColor=none;fillColor=none;" vertex="1" parent="evuIn5ss0UBtVVDpxM4R-120">
          <mxGeometry x="30" width="220" height="60" as="geometry" />
        </mxCell>
        <mxCell id="evuIn5ss0UBtVVDpxM4R-123" value="Create Workout&amp;nbsp;" style="ellipse;whiteSpace=wrap;html=1;" vertex="1" parent="evuIn5ss0UBtVVDpxM4R-120">
          <mxGeometry x="50" y="130" width="90" height="40" as="geometry" />
        </mxCell>
        <mxCell id="evuIn5ss0UBtVVDpxM4R-124" value="Create WOD" style="ellipse;whiteSpace=wrap;html=1;" vertex="1" parent="evuIn5ss0UBtVVDpxM4R-120">
          <mxGeometry x="125" y="210" width="75" height="40" as="geometry" />
        </mxCell>
        <mxCell id="evuIn5ss0UBtVVDpxM4R-125" value="Create Warm Up" style="ellipse;whiteSpace=wrap;html=1;" vertex="1" parent="evuIn5ss0UBtVVDpxM4R-120">
          <mxGeometry x="200" y="160" width="70" height="40" as="geometry" />
        </mxCell>
        <mxCell id="evuIn5ss0UBtVVDpxM4R-126" value="Create Cool Down&amp;nbsp;" style="ellipse;whiteSpace=wrap;html=1;" vertex="1" parent="evuIn5ss0UBtVVDpxM4R-120">
          <mxGeometry x="20" y="215" width="70" height="40" as="geometry" />
        </mxCell>
        <mxCell id="evuIn5ss0UBtVVDpxM4R-127" value="&amp;lt;&amp;lt;include&amp;gt;&amp;gt;" style="html=1;verticalAlign=bottom;endArrow=open;dashed=1;endSize=8;curved=0;rounded=0;entryX=0.585;entryY=0.115;entryDx=0;entryDy=0;entryPerimeter=0;exitX=0.5;exitY=1;exitDx=0;exitDy=0;" edge="1" parent="evuIn5ss0UBtVVDpxM4R-120" source="evuIn5ss0UBtVVDpxM4R-123" target="evuIn5ss0UBtVVDpxM4R-126">
          <mxGeometry relative="1" as="geometry">
            <mxPoint x="60" y="150" as="sourcePoint" />
            <mxPoint x="112.80000000000018" y="231.1199999999999" as="targetPoint" />
          </mxGeometry>
        </mxCell>
        <mxCell id="evuIn5ss0UBtVVDpxM4R-128" value="&amp;lt;&amp;lt;include&amp;gt;&amp;gt;" style="html=1;verticalAlign=bottom;endArrow=open;dashed=1;endSize=8;curved=0;rounded=0;entryX=0.45;entryY=-0.075;entryDx=0;entryDy=0;entryPerimeter=0;exitX=0.768;exitY=0.856;exitDx=0;exitDy=0;exitPerimeter=0;" edge="1" parent="evuIn5ss0UBtVVDpxM4R-120" source="evuIn5ss0UBtVVDpxM4R-123" target="evuIn5ss0UBtVVDpxM4R-124">
          <mxGeometry relative="1" as="geometry">
            <mxPoint x="177.20000000000005" y="159.44000000000005" as="sourcePoint" />
            <mxPoint x="160.20000000000005" y="220.44000000000005" as="targetPoint" />
          </mxGeometry>
        </mxCell>
        <mxCell id="evuIn5ss0UBtVVDpxM4R-129" value="&amp;lt;&amp;lt;include&amp;gt;&amp;gt;" style="html=1;verticalAlign=bottom;endArrow=open;dashed=1;endSize=8;curved=0;rounded=0;entryX=0.319;entryY=0.175;entryDx=0;entryDy=0;entryPerimeter=0;exitX=1.03;exitY=0.382;exitDx=0;exitDy=0;exitPerimeter=0;" edge="1" parent="evuIn5ss0UBtVVDpxM4R-120" source="evuIn5ss0UBtVVDpxM4R-123" target="evuIn5ss0UBtVVDpxM4R-125">
          <mxGeometry relative="1" as="geometry">
            <mxPoint x="210.1199999999999" y="149.76" as="sourcePoint" />
            <mxPoint x="256.1199999999999" y="203.76" as="targetPoint" />
          </mxGeometry>
        </mxCell>
        <mxCell id="evuIn5ss0UBtVVDpxM4R-131" value="Create/ Edit Workout Template" style="ellipse;whiteSpace=wrap;html=1;" vertex="1" parent="evuIn5ss0UBtVVDpxM4R-120">
          <mxGeometry x="50" y="70" width="110" height="40" as="geometry" />
        </mxCell>
        <mxCell id="evuIn5ss0UBtVVDpxM4R-122" value="Coach" style="shape=umlActor;verticalLabelPosition=bottom;verticalAlign=top;html=1;outlineConnect=0;" vertex="1" parent="evuIn5ss0UBtVVDpxM4R-273">
          <mxGeometry y="80" width="40" height="80" as="geometry" />
        </mxCell>
        <mxCell id="evuIn5ss0UBtVVDpxM4R-225" value="" style="endArrow=none;html=1;rounded=0;entryX=0.059;entryY=0.442;entryDx=0;entryDy=0;entryPerimeter=0;" edge="1" parent="evuIn5ss0UBtVVDpxM4R-273" source="evuIn5ss0UBtVVDpxM4R-122" target="evuIn5ss0UBtVVDpxM4R-123">
          <mxGeometry width="50" height="50" relative="1" as="geometry">
            <mxPoint x="-120" y="310" as="sourcePoint" />
            <mxPoint x="-70" y="260" as="targetPoint" />
          </mxGeometry>
        </mxCell>
        <mxCell id="evuIn5ss0UBtVVDpxM4R-226" value="" style="endArrow=none;html=1;rounded=0;entryX=0;entryY=0.5;entryDx=0;entryDy=0;" edge="1" parent="evuIn5ss0UBtVVDpxM4R-273" source="evuIn5ss0UBtVVDpxM4R-122" target="evuIn5ss0UBtVVDpxM4R-131">
          <mxGeometry width="50" height="50" relative="1" as="geometry">
            <mxPoint x="-50" y="279.53999999999996" as="sourcePoint" />
            <mxPoint x="19" y="270.53999999999996" as="targetPoint" />
          </mxGeometry>
        </mxCell>
        <mxCell id="evuIn5ss0UBtVVDpxM4R-275" value="" style="group" vertex="1" connectable="0" parent="1">
          <mxGeometry x="310" y="630" width="670" height="570" as="geometry" />
        </mxCell>
        <mxCell id="evuIn5ss0UBtVVDpxM4R-2" value="" style="swimlane;startSize=0;" vertex="1" parent="evuIn5ss0UBtVVDpxM4R-275">
          <mxGeometry x="320" width="280" height="570" as="geometry" />
        </mxCell>
        <mxCell id="evuIn5ss0UBtVVDpxM4R-4" value="&lt;font style=&quot;font-size: 18px;&quot; face=&quot;Courier New&quot;&gt;HIIT Gym Manager/&amp;nbsp;&lt;/font&gt;&lt;div&gt;&lt;font style=&quot;font-size: 18px;&quot; face=&quot;Courier New&quot;&gt;Authentication and&amp;nbsp;&lt;/font&gt;&lt;/div&gt;&lt;div&gt;&lt;font style=&quot;font-size: 18px;&quot; face=&quot;Courier New&quot;&gt;Role Management&lt;/font&gt;&lt;/div&gt;" style="text;html=1;align=center;verticalAlign=middle;resizable=0;points=[];autosize=1;strokeColor=none;fillColor=none;" vertex="1" parent="evuIn5ss0UBtVVDpxM4R-2">
          <mxGeometry x="40" width="230" height="80" as="geometry" />
        </mxCell>
        <mxCell id="evuIn5ss0UBtVVDpxM4R-41" value="Login" style="ellipse;whiteSpace=wrap;html=1;" vertex="1" parent="evuIn5ss0UBtVVDpxM4R-2">
          <mxGeometry x="90" y="90" width="100" height="40" as="geometry" />
        </mxCell>
        <mxCell id="evuIn5ss0UBtVVDpxM4R-42" value="Logout" style="ellipse;whiteSpace=wrap;html=1;" vertex="1" parent="evuIn5ss0UBtVVDpxM4R-2">
          <mxGeometry x="90" y="160" width="100" height="40" as="geometry" />
        </mxCell>
        <mxCell id="evuIn5ss0UBtVVDpxM4R-43" value="Sign up" style="ellipse;whiteSpace=wrap;html=1;" vertex="1" parent="evuIn5ss0UBtVVDpxM4R-2">
          <mxGeometry x="170" y="210" width="100" height="40" as="geometry" />
        </mxCell>
        <mxCell id="evuIn5ss0UBtVVDpxM4R-86" value="Assign admin role" style="ellipse;whiteSpace=wrap;html=1;" vertex="1" parent="evuIn5ss0UBtVVDpxM4R-2">
          <mxGeometry x="90" y="450" width="100" height="40" as="geometry" />
        </mxCell>
        <mxCell id="evuIn5ss0UBtVVDpxM4R-87" value="Assign coach role" style="ellipse;whiteSpace=wrap;html=1;" vertex="1" parent="evuIn5ss0UBtVVDpxM4R-2">
          <mxGeometry x="90" y="310" width="100" height="40" as="geometry" />
        </mxCell>
        <mxCell id="evuIn5ss0UBtVVDpxM4R-90" value="Approve visitor" style="ellipse;whiteSpace=wrap;html=1;" vertex="1" parent="evuIn5ss0UBtVVDpxM4R-2">
          <mxGeometry x="90" y="370" width="100" height="40" as="geometry" />
        </mxCell>
        <mxCell id="evuIn5ss0UBtVVDpxM4R-104" value="Remove admin role" style="ellipse;whiteSpace=wrap;html=1;" vertex="1" parent="evuIn5ss0UBtVVDpxM4R-2">
          <mxGeometry x="90" y="510" width="100" height="40" as="geometry" />
        </mxCell>
        <mxCell id="evuIn5ss0UBtVVDpxM4R-132" value="Switch role context" style="ellipse;whiteSpace=wrap;html=1;" vertex="1" parent="evuIn5ss0UBtVVDpxM4R-2">
          <mxGeometry x="50" y="220" width="100" height="40" as="geometry" />
        </mxCell>
        <mxCell id="evuIn5ss0UBtVVDpxM4R-6" value="Member" style="shape=umlActor;verticalLabelPosition=bottom;verticalAlign=top;html=1;outlineConnect=0;" vertex="1" parent="evuIn5ss0UBtVVDpxM4R-275">
          <mxGeometry x="80" y="420" width="40" height="80" as="geometry" />
        </mxCell>
        <mxCell id="evuIn5ss0UBtVVDpxM4R-7" value="User" style="shape=umlActor;verticalLabelPosition=bottom;verticalAlign=top;html=1;outlineConnect=0;" vertex="1" parent="evuIn5ss0UBtVVDpxM4R-275">
          <mxGeometry x="120" y="100" width="40" height="80" as="geometry" />
        </mxCell>
        <mxCell id="evuIn5ss0UBtVVDpxM4R-8" value="Manager" style="shape=umlActor;verticalLabelPosition=bottom;verticalAlign=top;html=1;outlineConnect=0;" vertex="1" parent="evuIn5ss0UBtVVDpxM4R-275">
          <mxGeometry x="200" y="420" width="40" height="80" as="geometry" />
        </mxCell>
        <mxCell id="evuIn5ss0UBtVVDpxM4R-11" value="Coach" style="shape=umlActor;verticalLabelPosition=bottom;verticalAlign=top;html=1;outlineConnect=0;" vertex="1" parent="evuIn5ss0UBtVVDpxM4R-275">
          <mxGeometry y="420" width="40" height="80" as="geometry" />
        </mxCell>
        <mxCell id="evuIn5ss0UBtVVDpxM4R-25" value="MobileUser" style="shape=umlActor;verticalLabelPosition=bottom;verticalAlign=top;html=1;outlineConnect=0;" vertex="1" parent="evuIn5ss0UBtVVDpxM4R-275">
          <mxGeometry x="40" y="260" width="40" height="80" as="geometry" />
        </mxCell>
        <mxCell id="evuIn5ss0UBtVVDpxM4R-27" value="WebUser/ Admin" style="shape=umlActor;verticalLabelPosition=bottom;verticalAlign=top;html=1;outlineConnect=0;" vertex="1" parent="evuIn5ss0UBtVVDpxM4R-275">
          <mxGeometry x="200" y="260" width="40" height="80" as="geometry" />
        </mxCell>
        <mxCell id="evuIn5ss0UBtVVDpxM4R-30" value="" style="endArrow=block;endSize=16;endFill=0;html=1;rounded=0;" edge="1" parent="evuIn5ss0UBtVVDpxM4R-275">
          <mxGeometry width="160" relative="1" as="geometry">
            <mxPoint x="60" y="260" as="sourcePoint" />
            <mxPoint x="140" y="200" as="targetPoint" />
            <Array as="points">
              <mxPoint x="60" y="240" />
              <mxPoint x="140" y="240" />
            </Array>
          </mxGeometry>
        </mxCell>
        <mxCell id="evuIn5ss0UBtVVDpxM4R-31" value="" style="endArrow=block;endSize=16;endFill=0;html=1;rounded=0;" edge="1" parent="evuIn5ss0UBtVVDpxM4R-275">
          <mxGeometry width="160" relative="1" as="geometry">
            <mxPoint x="220" y="260" as="sourcePoint" />
            <mxPoint x="140" y="200" as="targetPoint" />
            <Array as="points">
              <mxPoint x="220" y="240" />
              <mxPoint x="140" y="240" />
            </Array>
          </mxGeometry>
        </mxCell>
        <mxCell id="evuIn5ss0UBtVVDpxM4R-39" value="" style="endArrow=block;endSize=16;endFill=0;html=1;rounded=0;exitX=0.5;exitY=0;exitDx=0;exitDy=0;exitPerimeter=0;" edge="1" parent="evuIn5ss0UBtVVDpxM4R-275">
          <mxGeometry width="160" relative="1" as="geometry">
            <mxPoint x="100" y="420" as="sourcePoint" />
            <mxPoint x="60" y="360" as="targetPoint" />
            <Array as="points">
              <mxPoint x="100" y="400" />
              <mxPoint x="60" y="400" />
            </Array>
          </mxGeometry>
        </mxCell>
        <mxCell id="evuIn5ss0UBtVVDpxM4R-40" value="" style="endArrow=block;endSize=16;endFill=0;html=1;rounded=0;exitX=0.5;exitY=0;exitDx=0;exitDy=0;exitPerimeter=0;" edge="1" parent="evuIn5ss0UBtVVDpxM4R-275">
          <mxGeometry width="160" relative="1" as="geometry">
            <mxPoint x="20" y="420" as="sourcePoint" />
            <mxPoint x="60" y="360" as="targetPoint" />
            <Array as="points">
              <mxPoint x="20" y="400" />
              <mxPoint x="60" y="400" />
            </Array>
          </mxGeometry>
        </mxCell>
        <mxCell id="evuIn5ss0UBtVVDpxM4R-46" value="" style="endArrow=none;html=1;rounded=0;entryX=0;entryY=0.5;entryDx=0;entryDy=0;" edge="1" parent="evuIn5ss0UBtVVDpxM4R-275" source="evuIn5ss0UBtVVDpxM4R-7" target="evuIn5ss0UBtVVDpxM4R-41">
          <mxGeometry width="50" height="50" relative="1" as="geometry">
            <mxPoint x="340" y="320" as="sourcePoint" />
            <mxPoint x="390" y="270" as="targetPoint" />
          </mxGeometry>
        </mxCell>
        <mxCell id="evuIn5ss0UBtVVDpxM4R-47" value="" style="endArrow=none;html=1;rounded=0;entryX=0;entryY=0.5;entryDx=0;entryDy=0;" edge="1" parent="evuIn5ss0UBtVVDpxM4R-275" source="evuIn5ss0UBtVVDpxM4R-7" target="evuIn5ss0UBtVVDpxM4R-42">
          <mxGeometry width="50" height="50" relative="1" as="geometry">
            <mxPoint x="160" y="140" as="sourcePoint" />
            <mxPoint x="400" y="209.16999999999996" as="targetPoint" />
          </mxGeometry>
        </mxCell>
        <mxCell id="evuIn5ss0UBtVVDpxM4R-69" value="" style="endArrow=block;endSize=16;endFill=0;html=1;rounded=0;" edge="1" parent="evuIn5ss0UBtVVDpxM4R-275" source="evuIn5ss0UBtVVDpxM4R-8">
          <mxGeometry width="160" relative="1" as="geometry">
            <mxPoint x="230" y="390" as="sourcePoint" />
            <mxPoint x="220" y="360" as="targetPoint" />
          </mxGeometry>
        </mxCell>
        <mxCell id="evuIn5ss0UBtVVDpxM4R-83" value="Visitor" style="shape=umlActor;verticalLabelPosition=bottom;verticalAlign=top;html=1;outlineConnect=0;" vertex="1" parent="evuIn5ss0UBtVVDpxM4R-275">
          <mxGeometry x="630" y="160" width="40" height="80" as="geometry" />
        </mxCell>
        <mxCell id="evuIn5ss0UBtVVDpxM4R-84" value="" style="endArrow=none;html=1;rounded=0;exitX=1;exitY=0.5;exitDx=0;exitDy=0;" edge="1" parent="evuIn5ss0UBtVVDpxM4R-275" source="evuIn5ss0UBtVVDpxM4R-43" target="evuIn5ss0UBtVVDpxM4R-83">
          <mxGeometry width="50" height="50" relative="1" as="geometry">
            <mxPoint x="490" y="382.20000000000005" as="sourcePoint" />
            <mxPoint x="720" y="538.2" as="targetPoint" />
          </mxGeometry>
        </mxCell>
        <mxCell id="evuIn5ss0UBtVVDpxM4R-88" value="" style="endArrow=none;html=1;rounded=0;entryX=-0.02;entryY=0.28;entryDx=0;entryDy=0;entryPerimeter=0;" edge="1" parent="evuIn5ss0UBtVVDpxM4R-275" source="evuIn5ss0UBtVVDpxM4R-27" target="evuIn5ss0UBtVVDpxM4R-87">
          <mxGeometry width="50" height="50" relative="1" as="geometry">
            <mxPoint x="210" y="317.25" as="sourcePoint" />
            <mxPoint x="320" y="290.04999999999995" as="targetPoint" />
          </mxGeometry>
        </mxCell>
        <mxCell id="evuIn5ss0UBtVVDpxM4R-89" value="" style="endArrow=none;html=1;rounded=0;entryX=0;entryY=0.5;entryDx=0;entryDy=0;" edge="1" parent="evuIn5ss0UBtVVDpxM4R-275" source="evuIn5ss0UBtVVDpxM4R-8" target="evuIn5ss0UBtVVDpxM4R-86">
          <mxGeometry width="50" height="50" relative="1" as="geometry">
            <mxPoint x="242" y="440" as="sourcePoint" />
            <mxPoint x="390" y="573" as="targetPoint" />
          </mxGeometry>
        </mxCell>
        <mxCell id="evuIn5ss0UBtVVDpxM4R-91" value="" style="endArrow=none;html=1;rounded=0;entryX=0;entryY=0.5;entryDx=0;entryDy=0;" edge="1" parent="evuIn5ss0UBtVVDpxM4R-275" source="evuIn5ss0UBtVVDpxM4R-27" target="evuIn5ss0UBtVVDpxM4R-90">
          <mxGeometry width="50" height="50" relative="1" as="geometry">
            <mxPoint x="210" y="330.79999999999995" as="sourcePoint" />
            <mxPoint x="428" y="349.79999999999995" as="targetPoint" />
          </mxGeometry>
        </mxCell>
        <mxCell id="evuIn5ss0UBtVVDpxM4R-105" value="" style="endArrow=none;html=1;rounded=0;entryX=0;entryY=0.5;entryDx=0;entryDy=0;" edge="1" parent="evuIn5ss0UBtVVDpxM4R-275" source="evuIn5ss0UBtVVDpxM4R-8">
          <mxGeometry width="50" height="50" relative="1" as="geometry">
            <mxPoint x="240" y="460" as="sourcePoint" />
            <mxPoint x="470" y="520" as="targetPoint" />
          </mxGeometry>
        </mxCell>
        <mxCell id="evuIn5ss0UBtVVDpxM4R-133" value="" style="endArrow=none;html=1;rounded=0;entryX=0;entryY=0.5;entryDx=0;entryDy=0;" edge="1" parent="evuIn5ss0UBtVVDpxM4R-275" source="evuIn5ss0UBtVVDpxM4R-7" target="evuIn5ss0UBtVVDpxM4R-132">
          <mxGeometry width="50" height="50" relative="1" as="geometry">
            <mxPoint x="120" y="180.03999999999996" as="sourcePoint" />
            <mxPoint x="370" y="217.03999999999996" as="targetPoint" />
          </mxGeometry>
        </mxCell>
      </root>
    </mxGraphModel>
  </diagram>
</mxfile>
